<mxfile host="app.diagrams.net" modified="2023-11-22T19:29:49.474Z" agent="Mozilla/5.0 (Windows NT 10.0; Win64; x64) AppleWebKit/537.36 (KHTML, like Gecko) Chrome/119.0.0.0 Safari/537.36" etag="HHskqdmXcandhGevU9qW" version="22.1.3" type="github">
  <diagram name="PÃ¡gina-1" id="VZI5kp9WptuFOJUBkX37">
    <mxGraphModel dx="1914" dy="981" grid="1" gridSize="10" guides="1" tooltips="1" connect="1" arrows="1" fold="1" page="1" pageScale="1" pageWidth="827" pageHeight="1169" math="0" shadow="0">
      <root>
        <mxCell id="0" />
        <mxCell id="1" parent="0" />
        <mxCell id="ZL9JyAkDwaowS75whotx-12" value="" style="strokeColor=#666666;html=1;verticalLabelPosition=bottom;labelBackgroundColor=#ffffff;verticalAlign=top;outlineConnect=0;shadow=0;dashed=0;shape=mxgraph.rackGeneral.rackCabinet3;fillColor2=#f4f4f4;container=1;collapsible=0;childLayout=rack;allowGaps=1;marginLeft=9;marginRight=9;marginTop=21;marginBottom=22;textColor=#666666;numDisp=off;" vertex="1" parent="1">
          <mxGeometry x="111" y="230" width="181" height="483" as="geometry" />
        </mxCell>
        <mxCell id="ZL9JyAkDwaowS75whotx-1" value="" style="strokeColor=#666666;html=1;labelPosition=right;align=left;spacingLeft=15;shadow=0;dashed=0;outlineConnect=0;shape=mxgraph.rack.dell.poweredge_r540;" vertex="1" parent="1">
          <mxGeometry x="120" y="401" width="162" height="27" as="geometry" />
        </mxCell>
        <mxCell id="ZL9JyAkDwaowS75whotx-2" value="" style="strokeColor=#666666;html=1;labelPosition=right;align=left;spacingLeft=15;shadow=0;dashed=0;outlineConnect=0;shape=mxgraph.rack.dell.poweredge_r540;" vertex="1" parent="1">
          <mxGeometry x="120" y="361" width="162" height="27" as="geometry" />
        </mxCell>
        <mxCell id="ZL9JyAkDwaowS75whotx-3" value="" style="strokeColor=#666666;html=1;labelPosition=right;align=left;spacingLeft=15;shadow=0;dashed=0;outlineConnect=0;shape=mxgraph.rack.dell.poweredge_r540;" vertex="1" parent="1">
          <mxGeometry x="120" y="321" width="162" height="29" as="geometry" />
        </mxCell>
        <mxCell id="ZL9JyAkDwaowS75whotx-5" value="" style="strokeColor=#666666;html=1;labelPosition=right;align=left;spacingLeft=15;shadow=0;dashed=0;outlineConnect=0;shape=mxgraph.rack.dell.poweredge_r540;" vertex="1" parent="1">
          <mxGeometry x="120" y="281" width="162" height="29" as="geometry" />
        </mxCell>
        <mxCell id="ZL9JyAkDwaowS75whotx-6" value="" style="strokeColor=#666666;html=1;labelPosition=right;align=left;spacingLeft=15;shadow=0;dashed=0;outlineConnect=0;shape=mxgraph.rack.dell.poweredge_r440;" vertex="1" parent="1">
          <mxGeometry x="120" y="255" width="162" height="15" as="geometry" />
        </mxCell>
        <mxCell id="ZL9JyAkDwaowS75whotx-8" value="" style="shape=mxgraph.rack.hp.hp_proliant_sl250s_g8;html=1;labelPosition=right;align=left;spacingLeft=15;dashed=0;shadow=0;fillColor=#ffffff;" vertex="1" parent="1">
          <mxGeometry x="120" y="440" width="120" height="30" as="geometry" />
        </mxCell>
        <mxCell id="ZL9JyAkDwaowS75whotx-9" value="" style="html=1;verticalLabelPosition=bottom;verticalAlign=top;outlineConnect=0;shadow=0;dashed=0;shape=mxgraph.rack.hpe_aruba.switches.j9856a_2530_24g_2sfpplus_switch;" vertex="1" parent="1">
          <mxGeometry x="120" y="480" width="162" height="20" as="geometry" />
        </mxCell>
        <mxCell id="ZL9JyAkDwaowS75whotx-10" value="" style="html=1;verticalLabelPosition=bottom;verticalAlign=top;outlineConnect=0;shadow=0;dashed=0;shape=mxgraph.rack.hpe_aruba.switches.j9856a_2530_24g_2sfpplus_switch;" vertex="1" parent="1">
          <mxGeometry x="120" y="510" width="161" height="20" as="geometry" />
        </mxCell>
        <mxCell id="ZL9JyAkDwaowS75whotx-11" value="" style="html=1;verticalLabelPosition=bottom;verticalAlign=top;outlineConnect=0;shadow=0;dashed=0;shape=mxgraph.rack.hpe_aruba.switches.jl355a_aruba_2540_48g_4sfpplus_switch;" vertex="1" parent="1">
          <mxGeometry x="120" y="540" width="162" height="20" as="geometry" />
        </mxCell>
        <mxCell id="ZL9JyAkDwaowS75whotx-14" value="" style="sketch=0;points=[[0.015,0.015,0],[0.985,0.015,0],[0.985,0.985,0],[0.015,0.985,0],[0.25,0,0],[0.5,0,0],[0.75,0,0],[1,0.25,0],[1,0.5,0],[1,0.75,0],[0.75,1,0],[0.5,1,0],[0.25,1,0],[0,0.75,0],[0,0.5,0],[0,0.25,0]];verticalLabelPosition=bottom;html=1;verticalAlign=top;aspect=fixed;align=center;pointerEvents=1;shape=mxgraph.cisco19.rect;prIcon=firewall;fillColor=#FAFAFA;strokeColor=#005073;" vertex="1" parent="1">
          <mxGeometry x="570" y="270" width="64" height="50" as="geometry" />
        </mxCell>
        <mxCell id="ZL9JyAkDwaowS75whotx-15" value="MetroGyn" style="ellipse;shape=cloud;whiteSpace=wrap;html=1;" vertex="1" parent="1">
          <mxGeometry x="460" y="120" width="120" height="80" as="geometry" />
        </mxCell>
        <mxCell id="ZL9JyAkDwaowS75whotx-16" value="OI Fibra" style="ellipse;shape=cloud;whiteSpace=wrap;html=1;" vertex="1" parent="1">
          <mxGeometry x="610" y="120" width="120" height="80" as="geometry" />
        </mxCell>
        <mxCell id="ZL9JyAkDwaowS75whotx-17" style="edgeStyle=orthogonalEdgeStyle;rounded=0;orthogonalLoop=1;jettySize=auto;html=1;entryX=0.55;entryY=0.95;entryDx=0;entryDy=0;entryPerimeter=0;" edge="1" parent="1" source="ZL9JyAkDwaowS75whotx-14" target="ZL9JyAkDwaowS75whotx-15">
          <mxGeometry relative="1" as="geometry" />
        </mxCell>
        <mxCell id="ZL9JyAkDwaowS75whotx-18" style="edgeStyle=orthogonalEdgeStyle;rounded=0;orthogonalLoop=1;jettySize=auto;html=1;entryX=0.55;entryY=0.95;entryDx=0;entryDy=0;entryPerimeter=0;" edge="1" parent="1" source="ZL9JyAkDwaowS75whotx-14" target="ZL9JyAkDwaowS75whotx-16">
          <mxGeometry relative="1" as="geometry" />
        </mxCell>
        <mxCell id="ZL9JyAkDwaowS75whotx-19" style="edgeStyle=orthogonalEdgeStyle;rounded=0;orthogonalLoop=1;jettySize=auto;html=1;entryX=0;entryY=0.5;entryDx=0;entryDy=0;entryPerimeter=0;" edge="1" parent="1" source="ZL9JyAkDwaowS75whotx-5" target="ZL9JyAkDwaowS75whotx-14">
          <mxGeometry relative="1" as="geometry" />
        </mxCell>
        <mxCell id="ZL9JyAkDwaowS75whotx-20" style="edgeStyle=orthogonalEdgeStyle;rounded=0;orthogonalLoop=1;jettySize=auto;html=1;entryX=0;entryY=0.5;entryDx=0;entryDy=0;entryPerimeter=0;" edge="1" parent="1" source="ZL9JyAkDwaowS75whotx-3" target="ZL9JyAkDwaowS75whotx-14">
          <mxGeometry relative="1" as="geometry" />
        </mxCell>
        <mxCell id="ZL9JyAkDwaowS75whotx-21" style="edgeStyle=orthogonalEdgeStyle;rounded=0;orthogonalLoop=1;jettySize=auto;html=1;entryX=0;entryY=0.5;entryDx=0;entryDy=0;entryPerimeter=0;" edge="1" parent="1" source="ZL9JyAkDwaowS75whotx-2" target="ZL9JyAkDwaowS75whotx-14">
          <mxGeometry relative="1" as="geometry" />
        </mxCell>
        <mxCell id="ZL9JyAkDwaowS75whotx-22" style="edgeStyle=orthogonalEdgeStyle;rounded=0;orthogonalLoop=1;jettySize=auto;html=1;entryX=0;entryY=0.5;entryDx=0;entryDy=0;entryPerimeter=0;" edge="1" parent="1" source="ZL9JyAkDwaowS75whotx-1" target="ZL9JyAkDwaowS75whotx-14">
          <mxGeometry relative="1" as="geometry" />
        </mxCell>
        <mxCell id="ZL9JyAkDwaowS75whotx-23" style="edgeStyle=orthogonalEdgeStyle;rounded=0;orthogonalLoop=1;jettySize=auto;html=1;entryX=0;entryY=0.5;entryDx=0;entryDy=0;entryPerimeter=0;" edge="1" parent="1" target="ZL9JyAkDwaowS75whotx-14">
          <mxGeometry relative="1" as="geometry">
            <mxPoint x="240" y="454.5" as="sourcePoint" />
            <mxPoint x="540" y="360" as="targetPoint" />
          </mxGeometry>
        </mxCell>
        <mxCell id="ZL9JyAkDwaowS75whotx-24" value="" style="endArrow=none;dashed=1;html=1;rounded=0;entryX=0.02;entryY=0.16;entryDx=0;entryDy=0;entryPerimeter=0;" edge="1" parent="1" source="ZL9JyAkDwaowS75whotx-6" target="ZL9JyAkDwaowS75whotx-14">
          <mxGeometry width="50" height="50" relative="1" as="geometry">
            <mxPoint x="282.13" y="258.4499078271054" as="sourcePoint" />
            <mxPoint x="570.0019999999998" y="270.00000000000006" as="targetPoint" />
          </mxGeometry>
        </mxCell>
        <mxCell id="ZL9JyAkDwaowS75whotx-25" value="Representative" style="edgeLabel;html=1;align=center;verticalAlign=middle;resizable=0;points=[];rotation=2.9;" vertex="1" connectable="0" parent="ZL9JyAkDwaowS75whotx-24">
          <mxGeometry x="-0.2757" y="-1" relative="1" as="geometry">
            <mxPoint x="65" y="-7" as="offset" />
          </mxGeometry>
        </mxCell>
        <mxCell id="ZL9JyAkDwaowS75whotx-26" value="pfSense" style="text;html=1;align=center;verticalAlign=middle;resizable=0;points=[];autosize=1;strokeColor=none;fillColor=none;" vertex="1" parent="1">
          <mxGeometry x="24" y="246" width="70" height="30" as="geometry" />
        </mxCell>
        <mxCell id="ZL9JyAkDwaowS75whotx-27" value="OracleDB" style="text;html=1;align=center;verticalAlign=middle;resizable=0;points=[];autosize=1;strokeColor=none;fillColor=none;" vertex="1" parent="1">
          <mxGeometry x="19" y="280" width="80" height="30" as="geometry" />
        </mxCell>
        <mxCell id="ZL9JyAkDwaowS75whotx-28" value="VMware01" style="text;html=1;align=center;verticalAlign=middle;resizable=0;points=[];autosize=1;strokeColor=none;fillColor=none;" vertex="1" parent="1">
          <mxGeometry x="20" y="320" width="80" height="30" as="geometry" />
        </mxCell>
        <mxCell id="ZL9JyAkDwaowS75whotx-29" value="VMware02" style="text;html=1;align=center;verticalAlign=middle;resizable=0;points=[];autosize=1;strokeColor=none;fillColor=none;" vertex="1" parent="1">
          <mxGeometry x="20" y="358" width="80" height="30" as="geometry" />
        </mxCell>
        <mxCell id="ZL9JyAkDwaowS75whotx-30" value="VMware03" style="text;html=1;align=center;verticalAlign=middle;resizable=0;points=[];autosize=1;strokeColor=none;fillColor=none;" vertex="1" parent="1">
          <mxGeometry x="21" y="399" width="80" height="30" as="geometry" />
        </mxCell>
        <mxCell id="ZL9JyAkDwaowS75whotx-31" value="Bacularis" style="text;html=1;align=center;verticalAlign=middle;resizable=0;points=[];autosize=1;strokeColor=none;fillColor=none;" vertex="1" parent="1">
          <mxGeometry x="25" y="440" width="70" height="30" as="geometry" />
        </mxCell>
        <mxCell id="ZL9JyAkDwaowS75whotx-32" value="Switch HPE" style="text;html=1;align=center;verticalAlign=middle;resizable=0;points=[];autosize=1;strokeColor=none;fillColor=none;" vertex="1" parent="1">
          <mxGeometry x="18" y="475" width="90" height="30" as="geometry" />
        </mxCell>
        <mxCell id="ZL9JyAkDwaowS75whotx-33" value="Switch HPE" style="text;html=1;align=center;verticalAlign=middle;resizable=0;points=[];autosize=1;strokeColor=none;fillColor=none;" vertex="1" parent="1">
          <mxGeometry x="18" y="505" width="90" height="30" as="geometry" />
        </mxCell>
        <mxCell id="ZL9JyAkDwaowS75whotx-34" value="Switch D-Link" style="text;html=1;align=center;verticalAlign=middle;resizable=0;points=[];autosize=1;strokeColor=none;fillColor=none;" vertex="1" parent="1">
          <mxGeometry x="14" y="535" width="100" height="30" as="geometry" />
        </mxCell>
      </root>
    </mxGraphModel>
  </diagram>
</mxfile>
